<svg xmlns="http://www.w3.org/2000/svg" xmlns:xlink="http://www.w3.org/1999/xlink" version="1.1" x="0px" y="0px" viewBox="0 0 1200 1125" enable-background="new 0 0 1200 900" xml:space="preserve"><g><path d="M634.9,714c-1.9,5.7-6.7,10-12.4,11.5c-1.4,0.5-2.9,0.5-4.3,0.5c-4.3,0-8.6-1.4-12-4.8c-3.8-3.3-9.6-3.3-13.4,0   c-4.3,4.3-10.5,5.7-16.3,4.3c-5.7-1.4-10.5-5.7-12.4-11.5l0,0l-11,81.3l46.4-37.3l46.4,37.3L634.9,714L634.9,714z"/><path d="M512.5,621.7c-0.5,3.3,1,6.2,3.3,8.6c7.2,5.7,8.6,16.3,2.9,23.9l-0.5,0.5c-1.9,2.9-2.4,6.2-1,9.1c1.4,2.9,3.8,5.3,7.2,5.7   c9.1,1.9,14.8,10.5,13.9,19.6c-0.5,3.8,0.5,6.7,3.3,9.1c2.4,2.4,5.7,2.9,9.1,1.9c1.4-0.5,3.3-0.5,4.8-0.5c7.2,0,13.9,4.8,16.7,12   c1,3.3,3.8,5.7,6.7,6.2c3.3,1,6.7,0,9.1-2.4c6.7-6.2,17.2-6.2,23.9,0c2.4,2.4,5.7,3.3,9.1,2.4c3.3-1,5.7-2.9,6.7-6.2   c3.3-9.1,12.4-13.9,21.5-11.5c3.3,1,6.7,0,9.1-1.9c2.4-2.4,3.8-5.3,3.3-8.6c-1.4-9.6,4.8-18.2,13.9-20.1c3.3-0.5,5.7-2.9,7.2-5.7   c1.4-2.9,1-6.2-1-9.1l-0.5-0.5c-5.3-7.7-3.8-17.7,2.9-23.4c2.4-2.4,3.8-5.3,3.3-8.6c-0.5-3.3-2.4-6.2-5.3-7.7l-0.5-0.5   c-8.1-4.3-12-13.9-8.1-22.5c1.4-3.3,1-6.7-1-9.1c-1.9-2.9-4.8-4.3-8.1-4.3l0,0h-0.5l0,0c-9.1,0-16.7-6.7-17.7-15.8   c-0.5-3.8-2.4-6.2-5.3-8.1c-2.9-1.4-6.2-1.4-9.1,0l-0.5,0.5c-8.1,4.3-17.7,1.9-23-5.7l-0.5-0.5c-1.9-2.9-4.8-4.3-8.1-4.3   c-3.3,0-6.2,1.4-8.1,4.3l-0.5,0.5c-5.3,7.7-14.8,10-23,5.7l-0.5-0.5c-2.9-1.4-6.2-1.4-9.1,0c-2.9,1.4-4.8,4.3-5.3,7.7   c-1,9.6-8.6,16.3-17.7,16.3l0,0h-0.5c-3.3,0-6.2,1.4-8.1,4.3s-2.4,6.2-1,9.1c3.3,8.6,0,18.2-8.1,22.5l-0.5,0.5   C514.4,615.5,512.5,618.3,512.5,621.7z"/></g><path d="M347.3,53.1v622.5h170.9c-3.6-2-6.4-5-8.1-9.1c-2.4-5.7-1.4-12,1.9-16.7l0.5-0.5c2.9-4.3,2.4-10-1.4-12.9  c-4.3-3.3-6.7-9.1-6.2-15.3c0.5-5.7,4.3-11,9.6-13.9l0.5-0.5c4.3-2.4,6.7-7.7,4.8-12.4c-2.4-5.7-1.4-12,1.4-16.7  c3.3-4.8,8.6-7.7,14.8-7.7c0,0,9.8,0.2,10-8.6c0.5-6.2,4.3-11.5,9.1-13.9c5.3-2.9,11.5-2.9,16.7,0l0.5,0.5c4.3,2.4,10,1,12.4-3.3  l0.5-0.5c3.3-4.8,8.6-7.7,14.8-7.7c5.7,0,11.5,2.9,14.8,7.7l0.5,0.5c2.9,4.3,8.1,5.7,12.4,3.3l0.5-0.5c5.3-2.9,11.5-2.9,16.7,0  c5.3,2.9,8.6,8.1,9.1,13.9c0.5,5.3,4.8,9.1,9.6,9.1h0.5c6.2,0,11.5,2.9,14.8,7.7s3.8,11,1.9,16.7c-1.9,4.8,0,10,4.3,12.4l0.5,0.5  c5.3,2.9,8.6,7.7,9.6,13.9c0.5,5.7-1.4,11.5-6.2,15.3c-3.8,3.3-4.8,9.1-1.9,12.9l0.5,0.5c3.3,4.8,4.3,11,1.9,16.7  c-1.2,3.7-3.7,6.6-6.9,8.6h170.2V53.1H347.3z M756.5,291h-313v-17h313V291z M756.5,233h-313v-17h313V233z M756.5,175h-313v-17h313  V175z"/><text x="0" y="915" fill="#000000" font-size="5px" font-weight="bold" font-family="'Helvetica Neue', Helvetica, Arial-Unicode, Arial, Sans-serif">Created by Idevã Batista</text><text x="0" y="920" fill="#000000" font-size="5px" font-weight="bold" font-family="'Helvetica Neue', Helvetica, Arial-Unicode, Arial, Sans-serif">from the Noun Project</text></svg>